# xmcd CD database file generated by Grip 3.2.0
# 
# Track frame offsets:
#       182
#       16732
#       33250
#       51875
#       68642
#       81455
#       95157
#       110510
#       129162
#       147285
#       163167
#       182552
#       196920
#       211055
#       227867
#       239620
# 
# Disc length: 3408 seconds
# 
# Revision: 1
# Processed by: cddbd v1.5.1PL0 Copyright (c) Steve Scherf et al.
# Submitted via: Grip 3.2.0
# 
DISCID=da0d4e10
DTITLE=Various Artist - Welcome to Big Country
DYEAR=1996
DGENRE=Country
TTITLE0=Alan Jackson - Mercury Blues
TTITLE1=Brooks and Dunn - That Ain't No Way to Go
TTITLE2=John Michael Montgomery - Rope the Moon
TTITLE3=Blackhawk - Every Once in a While
TTITLE4=Patty Loveless - I Try to Think About Elvis
TTITLE5=Diamond Rio - In a Week Or Two
TTITLE6=John Berry - What's In It For Me
TTITLE7=Little Texas - My Love
TTITLE8=Vince Gill - Never Knew Lonely
TTITLE9=Radney Foster - Nobody Wins
TTITLE10=Lee Roy Parnell - I'm Holding My Own
TTITLE11=Randy Travis - Whisper My Name
TTITLE12=Pam Tillis - Shake the Sugar Tree
TTITLE13=Joe Diffie - Ships That Don't Come In
TTITLE14=Mark Chesnutt - Goin' Through the Big D
TTITLE15=Neal McCoy - The City Put the Country Back in Me
EXTD=
EXTT0=
EXTT1=
EXTT2=
EXTT3=
EXTT4=
EXTT5=
EXTT6=
EXTT7=
EXTT8=
EXTT9=
EXTT10=
EXTT11=
EXTT12=
EXTT13=
EXTT14=
EXTT15=
PLAYORDER=
